<?xml version="1.0" standalone="no"?>
<!DOCTYPE svg PUBLIC "-//W3C//DTD SVG 20010904//EN"
 "http://www.w3.org/TR/2001/REC-SVG-20010904/DTD/svg10.dtd">
<svg version="1.0" xmlns="http://www.w3.org/2000/svg"
 width="390.000000pt" height="260.000000pt" viewBox="0 0 390.000000 260.000000"
 preserveAspectRatio="xMidYMid meet">

<g transform="translate(0.000000,260.000000) scale(0.100000,-0.100000)"
fill="#000000" stroke="none">
<path d="M1106 2415 c-11 -8 -36 -14 -55 -13 -20 0 -47 -5 -61 -12 -13 -7 -34
-16 -47 -19 -22 -6 -22 -7 -8 -35 19 -35 19 -36 -1 -36 -11 0 -14 -6 -8 -22 9
-31 8 -30 38 -18 36 13 136 9 136 -6 0 -6 -21 -15 -47 -19 -58 -8 -83 -21 -83
-41 0 -8 -11 -19 -25 -24 -14 -5 -25 -16 -25 -25 0 -13 -18 -20 -42 -16 -5 0
-8 -4 -8 -9 0 -5 6 -10 13 -10 7 0 18 -9 25 -20 7 -11 18 -20 26 -20 8 0 19
-14 25 -31 15 -43 14 -59 -4 -59 -9 0 -20 -11 -25 -25 -5 -14 -13 -25 -17 -26
-5 0 -18 -2 -30 -5 -13 -2 -23 0 -23 6 0 17 -61 43 -73 31 -8 -8 -7 -16 5 -28
15 -14 15 -19 2 -44 -7 -15 -13 -36 -12 -46 3 -38 -3 -53 -21 -53 -10 0 -29
-11 -43 -24 -16 -16 -29 -22 -38 -16 -7 4 -19 6 -26 3 -8 -3 -18 6 -24 21 -11
29 -44 36 -54 11 -3 -8 -12 -15 -21 -15 -15 0 -19 -11 -15 -39 1 -8 -4 -17
-10 -21 -10 -6 -9 -24 0 -79 6 -39 16 -74 21 -77 5 -3 7 -9 4 -14 -3 -5 0 -39
6 -77 6 -37 10 -79 10 -93 0 -22 1 -23 10 -7 5 9 16 17 24 17 7 0 15 6 18 13
3 8 7 6 12 -6 5 -12 0 -24 -15 -37 -20 -17 -20 -20 -6 -26 16 -6 23 -25 9 -23
-24 4 -33 -4 -33 -30 0 -17 5 -33 10 -36 6 -3 8 -16 4 -29 -7 -31 12 -77 36
-83 11 -3 20 -9 20 -14 0 -5 -11 -4 -25 1 -16 6 -25 6 -25 0 0 -6 5 -10 10
-10 6 0 10 -11 10 -24 0 -14 11 -51 24 -83 21 -52 52 -164 60 -219 2 -11 6
-26 10 -33 7 -11 10 -29 21 -166 4 -38 17 -104 30 -145 13 -41 27 -87 31 -102
3 -15 14 -30 24 -33 10 -3 23 -19 30 -35 10 -24 19 -30 41 -30 16 0 29 5 29
10 0 16 39 -12 46 -32 7 -24 41 -23 49 2 8 25 41 45 50 30 9 -15 48 9 41 25
-3 8 -1 17 5 21 6 3 14 16 18 28 6 15 4 23 -8 28 -13 6 -12 8 7 14 35 10 30
51 -9 59 -24 6 -30 11 -27 30 1 12 -3 30 -11 39 -15 18 -11 26 13 30 8 1 24
10 34 19 18 17 21 17 36 1 16 -16 19 -14 50 20 19 20 43 36 54 36 17 0 36 30
33 53 -2 13 49 7 73 -8 23 -16 61 -11 50 6 -7 13 36 27 65 22 12 -2 29 1 37 8
10 8 14 8 14 0 0 -6 4 -11 9 -11 12 0 6 91 -7 116 -10 18 -6 64 4 64 9 0 49
-25 56 -35 5 -6 8 -5 8 3 0 6 7 12 15 12 8 0 15 -6 15 -14 0 -11 17 -13 80
-11 45 1 80 -2 80 -7 0 -5 5 -6 11 -2 8 5 8 8 0 13 -13 8 -24 81 -12 81 5 0
21 12 36 27 28 28 55 36 67 18 4 -6 16 0 28 13 16 17 19 26 11 36 -9 11 -6 14
15 14 34 0 44 12 48 58 2 36 5 39 30 37 23 -2 32 6 54 42 15 24 33 47 41 50
18 7 41 -13 35 -29 -6 -15 19 -28 39 -20 8 3 13 15 12 27 -2 26 23 69 37 61
13 -8 39 16 31 29 -3 5 1 15 9 21 8 6 17 19 21 29 3 9 13 17 22 17 23 0 18 13
-16 43 -30 26 -31 29 -15 46 9 9 16 25 16 34 0 9 4 18 10 22 5 3 7 12 3 20 -7
20 31 20 51 0 8 -8 24 -15 35 -15 17 0 21 6 21 29 0 21 6 32 21 36 17 6 20 14
18 45 -2 22 3 45 11 55 11 14 11 20 1 37 -16 26 -6 36 17 15 10 -10 33 -17 51
-17 60 0 121 -21 121 -41 0 -13 5 -16 16 -12 10 4 17 -1 21 -15 3 -11 19 -26
37 -33 17 -7 34 -14 38 -17 4 -2 10 8 14 22 7 31 5 31 54 6 27 -14 41 -16 46
-9 4 8 9 7 15 -2 7 -11 11 -11 21 3 25 32 51 30 91 -7 31 -28 37 -39 31 -58
-4 -12 -8 -33 -9 -46 -1 -14 -7 -27 -13 -29 -16 -5 -15 -29 0 -34 7 -3 13 -22
13 -46 0 -24 4 -42 11 -42 6 0 19 -9 28 -19 10 -10 25 -18 34 -16 9 2 23 4 30
4 7 1 11 5 7 10 -3 6 4 15 16 21 20 11 20 12 3 31 -15 17 -16 24 -4 59 7 21
30 58 52 82 34 39 39 41 49 25 5 -9 15 -14 21 -11 6 4 13 2 17 -5 10 -16 52
16 45 34 -4 10 0 15 11 15 26 0 12 23 -28 44 -20 11 -37 25 -37 31 0 20 -57
55 -77 48 -16 -6 -16 -5 1 13 18 17 18 19 3 22 -10 2 -15 7 -12 12 3 5 12 7
19 4 8 -3 15 4 18 18 7 35 -1 48 -27 48 -37 0 -28 35 15 54 33 14 35 19 38 66
3 48 2 51 -17 45 -10 -3 -22 -1 -25 4 -4 5 2 12 11 15 27 9 19 96 -8 96 -15 0
-19 7 -19 40 0 36 3 42 37 57 20 10 38 23 40 28 4 12 -57 37 -79 33 -7 -2 -12
3 -10 11 2 8 -9 27 -24 42 -28 29 -62 37 -80 19 -15 -15 -84 -20 -104 -8 -13
9 -28 9 -53 1 -37 -11 -57 -3 -57 24 0 8 -13 13 -33 13 -18 0 -38 5 -45 12 -9
9 -12 8 -12 -4 0 -15 -58 -34 -88 -29 -8 1 -16 -7 -19 -17 -7 -28 -113 -46
-128 -22 -4 6 -16 8 -27 5 -14 -5 -21 -1 -25 13 -4 17 -9 18 -44 10 -21 -6
-39 -14 -39 -19 0 -14 -78 -49 -107 -49 -16 0 -46 0 -68 -1 -63 -3 -69 0 -82
26 -13 28 -3 39 27 30 19 -6 20 -3 14 22 -11 46 -24 55 -68 49 -23 -3 -57 -7
-77 -9 -19 -2 -51 -14 -70 -27 -19 -14 -35 -24 -36 -22 -11 10 -23 -2 -23 -23
0 -15 -10 -31 -26 -41 -14 -9 -23 -23 -20 -30 9 -24 -4 -41 -30 -41 -15 0 -32
-10 -41 -22 -11 -17 -23 -21 -52 -18 -49 4 -62 14 -56 40 3 12 -1 31 -8 42
-13 17 -31 20 -163 25 -141 6 -194 17 -194 40 0 16 -57 40 -97 40 -21 0 -54 8
-73 18 -30 15 -35 22 -35 53 0 20 -7 43 -17 52 -20 20 -18 20 -42 2z"/>
</g>
</svg>
